<svg xmlns="http://www.w3.org/2000/svg" xmlns:xlink="http://www.w3.org/1999/xlink" width="500" zoomAndPan="magnify" viewBox="0 0 375 374.999991" height="500" preserveAspectRatio="xMidYMid meet" version="1.2"><g id="7ae38b5e7a"><path style=" stroke:none;fill-rule:nonzero;fill:#ffffff;fill-opacity:1;" d="M 324.414062 88.519531 C 324.484375 87.667969 324.519531 86.808594 324.519531 85.953125 C 324.519531 62.417969 305.371094 43.269531 281.835938 43.269531 C 281.351562 43.269531 280.878906 43.289062 279.785156 43.335938 L 87.625 43.324219 C 87.070312 43.296875 86.507812 43.269531 85.921875 43.269531 C 62.421875 43.269531 43.304688 62.378906 43.304688 85.898438 L 43.367188 89.339844 L 43.269531 89.339844 L 43.390625 276.226562 L 43.339844 282.628906 C 43.339844 305.882812 62.257812 324.796875 85.507812 324.796875 C 86.03125 324.796875 87.707031 324.722656 87.738281 324.722656 L 279.011719 324.75 C 279.949219 324.859375 280.964844 324.898438 282.011719 324.898438 C 293.261719 324.898438 303.847656 320.515625 311.8125 312.550781 C 319.785156 304.59375 324.171875 294.023438 324.171875 282.777344 L 324.125 279 L 324.414062 279 Z M 86.421875 306.457031 L 85.613281 306.394531 C 72.253906 306.394531 61.695312 295.445312 61.570312 281.480469 L 61.570312 127.632812 L 306.121094 127.632812 L 306.265625 280.035156 L 305.988281 280.933594 C 305.820312 281.511719 305.738281 282.058594 305.738281 282.558594 C 305.738281 295.242188 295.824219 305.730469 283.167969 306.429688 L 279.769531 306.628906 L 279.769531 306.460938 Z M 306.121094 109.335938 L 61.589844 109.335938 L 61.472656 88.625 L 61.738281 87.707031 C 61.902344 87.136719 61.984375 86.566406 61.984375 86.058594 C 61.984375 72.792969 72.890625 61.976562 86.542969 61.933594 L 86.683594 61.910156 L 280.859375 61.917969 L 281.695312 61.980469 C 294.992188 61.980469 305.808594 72.796875 305.808594 86.09375 C 305.808594 86.511719 305.871094 86.9375 306.015625 87.515625 L 306.117188 87.796875 L 306.117188 109.335938 Z M 306.121094 109.335938 "/><path style=" stroke:none;fill-rule:nonzero;fill:#ffffff;fill-opacity:1;" d="M 242.320312 171.21875 C 239.84375 171.21875 237.511719 172.183594 235.75 173.945312 L 165.566406 244.128906 L 132.042969 210.609375 C 130.304688 208.847656 127.976562 207.878906 125.496094 207.878906 C 123.019531 207.878906 120.683594 208.847656 118.925781 210.601562 C 117.175781 212.332031 116.203125 214.652344 116.195312 217.128906 C 116.1875 219.617188 117.160156 221.957031 118.925781 223.726562 L 158.988281 263.792969 C 160.738281 265.539062 163.074219 266.503906 165.566406 266.503906 C 168.054688 266.503906 170.394531 265.539062 172.144531 263.789062 L 248.863281 187.070312 C 250.617188 185.339844 251.589844 183.023438 251.597656 180.542969 C 251.601562 178.046875 250.628906 175.703125 248.871094 173.949219 C 247.125 172.1875 244.800781 171.21875 242.320312 171.21875 Z M 242.320312 171.21875 "/></g></svg>